<svg width="81" height="24" viewBox="0 0 81 24" fill="none" xmlns="http://www.w3.org/2000/svg">
<path d="M15.75 4.5H19.5V8.25" stroke="white" stroke-width="1.5" stroke-linecap="round" stroke-linejoin="round"/>
<path d="M14.25 9.75L19.5 4.5" stroke="white" stroke-width="1.5" stroke-linecap="round" stroke-linejoin="round"/>
<path d="M8.25 19.5H4.5V15.75" stroke="white" stroke-width="1.5" stroke-linecap="round" stroke-linejoin="round"/>
<path d="M9.75 14.25L4.5 19.5" stroke="white" stroke-width="1.5" stroke-linecap="round" stroke-linejoin="round"/>
<path d="M19.5 15.75V19.5H15.75" stroke="white" stroke-width="1.5" stroke-linecap="round" stroke-linejoin="round"/>
<path d="M14.25 14.25L19.5 19.5" stroke="white" stroke-width="1.5" stroke-linecap="round" stroke-linejoin="round"/>
<path d="M4.5 8.25V4.5H8.25" stroke="white" stroke-width="1.5" stroke-linecap="round" stroke-linejoin="round"/>
<path d="M9.75 9.75L4.5 4.5" stroke="white" stroke-width="1.5" stroke-linecap="round" stroke-linejoin="round"/>
<path d="M37.5341 6.36364V18H35.7727V8.125H35.7045L32.9205 9.94318V8.26136L35.8239 6.36364H37.5341ZM40.6818 18V16.7273L44.6193 12.6477C45.0398 12.2045 45.3864 11.8163 45.6591 11.483C45.9356 11.1458 46.142 10.8258 46.2784 10.5227C46.4148 10.2197 46.483 9.89773 46.483 9.55682C46.483 9.17045 46.392 8.83712 46.2102 8.55682C46.0284 8.27273 45.7803 8.05492 45.4659 7.90341C45.1515 7.74811 44.7973 7.67045 44.4034 7.67045C43.9867 7.67045 43.6231 7.75568 43.3125 7.92614C43.0019 8.09659 42.7633 8.33712 42.5966 8.64773C42.4299 8.95833 42.3466 9.32197 42.3466 9.73864H40.6705C40.6705 9.0303 40.8333 8.41098 41.1591 7.88068C41.4848 7.35038 41.9318 6.93939 42.5 6.64773C43.0682 6.35227 43.714 6.20455 44.4375 6.20455C45.1686 6.20455 45.8125 6.35038 46.3693 6.64205C46.9299 6.92992 47.3674 7.32386 47.6818 7.82386C47.9962 8.32008 48.1534 8.88068 48.1534 9.50568C48.1534 9.9375 48.072 10.3598 47.9091 10.7727C47.75 11.1856 47.4716 11.6458 47.0739 12.1534C46.6761 12.6572 46.1231 13.2689 45.4148 13.9886L43.1023 16.4091V16.4943H48.3409V18H40.6818ZM54.5455 18.1932C53.6477 18.1894 52.8807 17.9527 52.2443 17.483C51.608 17.0133 51.1212 16.3295 50.7841 15.4318C50.447 14.5341 50.2784 13.4527 50.2784 12.1875C50.2784 10.9261 50.447 9.84848 50.7841 8.95455C51.125 8.06061 51.6136 7.37879 52.25 6.90909C52.8902 6.43939 53.6553 6.20455 54.5455 6.20455C55.4356 6.20455 56.1989 6.44129 56.8352 6.91477C57.4716 7.38447 57.9583 8.06629 58.2955 8.96023C58.6364 9.85038 58.8068 10.9261 58.8068 12.1875C58.8068 13.4564 58.6383 14.5398 58.3011 15.4375C57.964 16.3314 57.4773 17.0152 56.8409 17.4886C56.2045 17.9583 55.4394 18.1932 54.5455 18.1932ZM54.5455 16.6761C55.3333 16.6761 55.9489 16.2917 56.392 15.5227C56.839 14.7538 57.0625 13.642 57.0625 12.1875C57.0625 11.2216 56.9602 10.4053 56.7557 9.73864C56.5549 9.06818 56.2652 8.56061 55.8864 8.21591C55.5114 7.86742 55.0644 7.69318 54.5455 7.69318C53.7614 7.69318 53.1458 8.07954 52.6989 8.85227C52.2519 9.625 52.0265 10.7367 52.0227 12.1875C52.0227 13.1572 52.1231 13.9773 52.3239 14.6477C52.5284 15.3144 52.8182 15.8201 53.1932 16.1648C53.5682 16.5057 54.0189 16.6761 54.5455 16.6761ZM64.8736 18.1932C63.9759 18.1894 63.2088 17.9527 62.5724 17.483C61.9361 17.0133 61.4493 16.3295 61.1122 15.4318C60.7751 14.5341 60.6065 13.4527 60.6065 12.1875C60.6065 10.9261 60.7751 9.84848 61.1122 8.95455C61.4531 8.06061 61.9418 7.37879 62.5781 6.90909C63.2183 6.43939 63.9834 6.20455 64.8736 6.20455C65.7637 6.20455 66.527 6.44129 67.1634 6.91477C67.7997 7.38447 68.2865 8.06629 68.6236 8.96023C68.9645 9.85038 69.1349 10.9261 69.1349 12.1875C69.1349 13.4564 68.9664 14.5398 68.6293 15.4375C68.2921 16.3314 67.8054 17.0152 67.169 17.4886C66.5327 17.9583 65.7675 18.1932 64.8736 18.1932ZM64.8736 16.6761C65.6615 16.6761 66.277 16.2917 66.7202 15.5227C67.1671 14.7538 67.3906 13.642 67.3906 12.1875C67.3906 11.2216 67.2884 10.4053 67.0838 9.73864C66.883 9.06818 66.5933 8.56061 66.2145 8.21591C65.8395 7.86742 65.3925 7.69318 64.8736 7.69318C64.0895 7.69318 63.474 8.07954 63.027 8.85227C62.58 9.625 62.3546 10.7367 62.3509 12.1875C62.3509 13.1572 62.4512 13.9773 62.652 14.6477C62.8565 15.3144 63.1463 15.8201 63.5213 16.1648C63.8963 16.5057 64.3471 16.6761 64.8736 16.6761ZM75.2017 18.1932C74.304 18.1894 73.5369 17.9527 72.9006 17.483C72.2642 17.0133 71.7775 16.3295 71.4403 15.4318C71.1032 14.5341 70.9347 13.4527 70.9347 12.1875C70.9347 10.9261 71.1032 9.84848 71.4403 8.95455C71.7813 8.06061 72.2699 7.37879 72.9062 6.90909C73.5464 6.43939 74.3116 6.20455 75.2017 6.20455C76.0919 6.20455 76.8551 6.44129 77.4915 6.91477C78.1278 7.38447 78.6146 8.06629 78.9517 8.96023C79.2926 9.85038 79.4631 10.9261 79.4631 12.1875C79.4631 13.4564 79.2945 14.5398 78.9574 15.4375C78.6203 16.3314 78.1335 17.0152 77.4972 17.4886C76.8608 17.9583 76.0956 18.1932 75.2017 18.1932ZM75.2017 16.6761C75.9896 16.6761 76.6051 16.2917 77.0483 15.5227C77.4953 14.7538 77.7188 13.642 77.7188 12.1875C77.7188 11.2216 77.6165 10.4053 77.4119 9.73864C77.2112 9.06818 76.9214 8.56061 76.5426 8.21591C76.1676 7.86742 75.7206 7.69318 75.2017 7.69318C74.4176 7.69318 73.8021 8.07954 73.3551 8.85227C72.9081 9.625 72.6828 10.7367 72.679 12.1875C72.679 13.1572 72.7794 13.9773 72.9801 14.6477C73.1847 15.3144 73.4744 15.8201 73.8494 16.1648C74.2244 16.5057 74.6752 16.6761 75.2017 16.6761Z" fill="white"/>
</svg>
