<svg width="123" height="24" viewBox="0 0 123 24" fill="none" xmlns="http://www.w3.org/2000/svg">
<path d="M12 12.75C13.6569 12.75 15 11.4069 15 9.75C15 8.09315 13.6569 6.75 12 6.75C10.3431 6.75 9 8.09315 9 9.75C9 11.4069 10.3431 12.75 12 12.75Z" stroke="white" stroke-width="1.5" stroke-linecap="round" stroke-linejoin="round"/>
<path d="M19.5 9.75C19.5 16.5 12 21.75 12 21.75C12 21.75 4.5 16.5 4.5 9.75C4.5 7.76088 5.29018 5.85322 6.6967 4.4467C8.10322 3.04018 10.0109 2.25 12 2.25C13.9891 2.25 15.8968 3.04018 17.3033 4.4467C18.7098 5.85322 19.5 7.76088 19.5 9.75V9.75Z" stroke="white" stroke-width="1.5" stroke-linecap="round" stroke-linejoin="round"/>
<path d="M35.5568 18L32.3295 6.36364H34.1761L36.4432 15.375H36.5511L38.9091 6.36364H40.7386L43.0966 15.3807H43.2045L45.4659 6.36364H47.3182L44.0852 18H42.3182L39.8693 9.28409H39.7784L37.3295 18H35.5568ZM50.4631 18.1932C49.91 18.1932 49.41 18.0909 48.9631 17.8864C48.5161 17.678 48.1619 17.3769 47.9006 16.983C47.643 16.589 47.5142 16.1061 47.5142 15.5341C47.5142 15.0417 47.6089 14.6364 47.7983 14.3182C47.9877 14 48.2434 13.7481 48.5653 13.5625C48.8873 13.3769 49.2472 13.2367 49.6449 13.142C50.0426 13.0473 50.4479 12.9754 50.8608 12.9261C51.3835 12.8655 51.8078 12.8163 52.1335 12.7784C52.4593 12.7367 52.696 12.6705 52.8438 12.5795C52.9915 12.4886 53.0653 12.3409 53.0653 12.1364V12.0966C53.0653 11.6004 52.9252 11.2159 52.6449 10.9432C52.3684 10.6705 51.9555 10.5341 51.4062 10.5341C50.8343 10.5341 50.3835 10.661 50.054 10.9148C49.7282 11.1648 49.5028 11.4432 49.3778 11.75L47.7812 11.3864C47.9706 10.8561 48.2472 10.428 48.6108 10.1023C48.9782 9.77273 49.4006 9.53409 49.8778 9.38636C50.3551 9.23485 50.857 9.15909 51.3835 9.15909C51.732 9.15909 52.1013 9.20076 52.4915 9.28409C52.8854 9.36364 53.2528 9.51136 53.5938 9.72727C53.9384 9.94318 54.2206 10.2519 54.4403 10.6534C54.66 11.0511 54.7699 11.5682 54.7699 12.2045V18H53.1108V16.8068H53.0426C52.9328 17.0265 52.768 17.2424 52.5483 17.4545C52.3286 17.6667 52.0464 17.8428 51.7017 17.983C51.357 18.1231 50.9441 18.1932 50.4631 18.1932ZM50.8324 16.8295C51.3021 16.8295 51.7036 16.7367 52.0369 16.5511C52.3741 16.3655 52.6297 16.1231 52.804 15.8239C52.982 15.5208 53.071 15.197 53.071 14.8523V13.7273C53.0104 13.7879 52.893 13.8447 52.7188 13.8977C52.5483 13.947 52.3532 13.9905 52.1335 14.0284C51.9138 14.0625 51.6998 14.0947 51.4915 14.125C51.2831 14.1515 51.1089 14.1742 50.9688 14.1932C50.6392 14.2348 50.3381 14.3049 50.0653 14.4034C49.7964 14.5019 49.5805 14.6439 49.4176 14.8295C49.2585 15.0114 49.179 15.2538 49.179 15.5568C49.179 15.9773 49.3343 16.2955 49.6449 16.5114C49.9555 16.7235 50.3513 16.8295 50.8324 16.8295ZM63.5724 11.4034L62.0327 11.6761C61.9683 11.4792 61.866 11.2917 61.7259 11.1136C61.5895 10.9356 61.4039 10.7898 61.169 10.6761C60.9342 10.5625 60.6406 10.5057 60.2884 10.5057C59.8073 10.5057 59.4058 10.6136 59.0838 10.8295C58.7618 11.0417 58.6009 11.3163 58.6009 11.6534C58.6009 11.9451 58.7088 12.1799 58.9247 12.358C59.1406 12.536 59.4891 12.6818 59.9702 12.7955L61.3565 13.1136C62.1596 13.2992 62.758 13.5852 63.152 13.9716C63.5459 14.358 63.7429 14.8598 63.7429 15.4773C63.7429 16 63.5914 16.4659 63.2884 16.875C62.9891 17.2803 62.5705 17.5985 62.0327 17.8295C61.4986 18.0606 60.8793 18.1761 60.1747 18.1761C59.1974 18.1761 58.4001 17.9678 57.7827 17.5511C57.1652 17.1307 56.7865 16.5341 56.6463 15.7614L58.2884 15.5114C58.3906 15.9394 58.6009 16.2633 58.919 16.483C59.2372 16.6989 59.652 16.8068 60.1634 16.8068C60.7202 16.8068 61.1652 16.6913 61.4986 16.4602C61.8319 16.2254 61.9986 15.9394 61.9986 15.6023C61.9986 15.3295 61.8963 15.1004 61.6918 14.9148C61.491 14.7292 61.1823 14.589 60.7656 14.4943L59.2884 14.1705C58.474 13.9848 57.8717 13.6894 57.4815 13.2841C57.0952 12.8788 56.902 12.3655 56.902 11.7443C56.902 11.2292 57.0459 10.7784 57.3338 10.392C57.6217 10.0057 58.0194 9.70455 58.527 9.48864C59.0346 9.26894 59.616 9.15909 60.2713 9.15909C61.2145 9.15909 61.9569 9.36364 62.4986 9.77273C63.0402 10.178 63.3982 10.7216 63.5724 11.4034ZM67.3097 12.8182V18H65.6108V6.36364H67.2869V10.6932H67.3949C67.5994 10.2235 67.9119 9.85038 68.3324 9.57386C68.7528 9.29735 69.3021 9.15909 69.9801 9.15909C70.5786 9.15909 71.1013 9.2822 71.5483 9.52841C71.9991 9.77462 72.3475 10.142 72.5938 10.6307C72.8438 11.1155 72.9688 11.7216 72.9688 12.4489V18H71.2699V12.6534C71.2699 12.0133 71.1051 11.517 70.7756 11.1648C70.446 10.8087 69.9877 10.6307 69.4006 10.6307C68.9991 10.6307 68.6392 10.7159 68.321 10.8864C68.0066 11.0568 67.7585 11.3068 67.5767 11.6364C67.3987 11.9621 67.3097 12.3561 67.3097 12.8182ZM75.2358 18V9.27273H76.9347V18H75.2358ZM76.0938 7.92614C75.7983 7.92614 75.5445 7.82765 75.3324 7.63068C75.1241 7.42992 75.0199 7.19129 75.0199 6.91477C75.0199 6.63447 75.1241 6.39583 75.3324 6.19886C75.5445 5.99811 75.7983 5.89773 76.0938 5.89773C76.3892 5.89773 76.6411 5.99811 76.8494 6.19886C77.0616 6.39583 77.1676 6.63447 77.1676 6.91477C77.1676 7.19129 77.0616 7.42992 76.8494 7.63068C76.6411 7.82765 76.3892 7.92614 76.0938 7.92614ZM80.919 12.8182V18H79.2202V9.27273H80.8509V10.6932H80.9588C81.1596 10.2311 81.474 9.85985 81.902 9.57955C82.3338 9.29924 82.8774 9.15909 83.5327 9.15909C84.1274 9.15909 84.6482 9.28409 85.0952 9.53409C85.5421 9.7803 85.8887 10.1477 86.1349 10.6364C86.3812 11.125 86.5043 11.7292 86.5043 12.4489V18H84.8054V12.6534C84.8054 12.0208 84.6406 11.5265 84.3111 11.1705C83.9815 10.8106 83.5289 10.6307 82.9531 10.6307C82.5592 10.6307 82.2088 10.7159 81.902 10.8864C81.599 11.0568 81.3584 11.3068 81.1804 11.6364C81.0062 11.9621 80.919 12.3561 80.919 12.8182ZM92.4418 21.4545C91.7486 21.4545 91.152 21.3636 90.652 21.1818C90.1558 21 89.7505 20.7595 89.4361 20.4602C89.1217 20.161 88.8868 19.8333 88.7315 19.4773L90.1918 18.875C90.294 19.0417 90.4304 19.2178 90.6009 19.4034C90.7751 19.5928 91.0099 19.7538 91.3054 19.8864C91.6046 20.0189 91.9891 20.0852 92.4588 20.0852C93.1027 20.0852 93.6349 19.928 94.0554 19.6136C94.4759 19.303 94.6861 18.8068 94.6861 18.125V16.4091H94.5781C94.4759 16.5947 94.3281 16.8011 94.1349 17.0284C93.9455 17.2557 93.6842 17.4527 93.3509 17.6193C93.0175 17.786 92.5838 17.8693 92.0497 17.8693C91.3603 17.8693 90.7391 17.7083 90.1861 17.3864C89.6368 17.0606 89.2012 16.5814 88.8793 15.9489C88.5611 15.3125 88.402 14.5303 88.402 13.6023C88.402 12.6742 88.5592 11.8788 88.8736 11.2159C89.1918 10.553 89.6274 10.0455 90.1804 9.69318C90.7334 9.33712 91.3603 9.15909 92.0611 9.15909C92.6027 9.15909 93.0402 9.25 93.3736 9.43182C93.7069 9.60985 93.9664 9.81818 94.152 10.0568C94.3414 10.2955 94.4872 10.5057 94.5895 10.6875H94.7145V9.27273H96.3793V18.1932C96.3793 18.9432 96.205 19.5587 95.8565 20.0398C95.508 20.5208 95.0365 20.8769 94.4418 21.108C93.8509 21.339 93.1842 21.4545 92.4418 21.4545ZM92.4247 16.4602C92.9134 16.4602 93.3262 16.3466 93.6634 16.1193C94.0043 15.8883 94.2618 15.5587 94.4361 15.1307C94.6141 14.6989 94.7031 14.1818 94.7031 13.5795C94.7031 12.9924 94.616 12.4754 94.4418 12.0284C94.2675 11.5814 94.0118 11.233 93.6747 10.983C93.3376 10.7292 92.9209 10.6023 92.4247 10.6023C91.9134 10.6023 91.4872 10.7348 91.1463 11C90.8054 11.2614 90.5478 11.6174 90.3736 12.0682C90.2031 12.5189 90.1179 13.0227 90.1179 13.5795C90.1179 14.1515 90.205 14.6534 90.3793 15.0852C90.5535 15.517 90.8111 15.8542 91.152 16.0966C91.4967 16.339 91.9209 16.4602 92.4247 16.4602ZM102.732 9.27273V10.6364H97.9645V9.27273H102.732ZM99.2429 7.18182H100.942V15.4375C100.942 15.767 100.991 16.0152 101.089 16.1818C101.188 16.3447 101.315 16.4564 101.47 16.517C101.629 16.5739 101.802 16.6023 101.987 16.6023C102.124 16.6023 102.243 16.5928 102.345 16.5739C102.447 16.5549 102.527 16.5398 102.584 16.5284L102.891 17.9318C102.792 17.9697 102.652 18.0076 102.47 18.0455C102.288 18.0871 102.061 18.1098 101.788 18.1136C101.341 18.1212 100.925 18.0417 100.538 17.875C100.152 17.7083 99.8395 17.4508 99.6009 17.1023C99.3622 16.7538 99.2429 16.3163 99.2429 15.7898V7.18182ZM108.193 18.1761C107.375 18.1761 106.661 17.9886 106.051 17.6136C105.441 17.2386 104.968 16.714 104.631 16.0398C104.294 15.3655 104.125 14.5777 104.125 13.6761C104.125 12.7708 104.294 11.9792 104.631 11.3011C104.968 10.6231 105.441 10.0966 106.051 9.72159C106.661 9.34659 107.375 9.15909 108.193 9.15909C109.011 9.15909 109.725 9.34659 110.335 9.72159C110.945 10.0966 111.419 10.6231 111.756 11.3011C112.093 11.9792 112.261 12.7708 112.261 13.6761C112.261 14.5777 112.093 15.3655 111.756 16.0398C111.419 16.714 110.945 17.2386 110.335 17.6136C109.725 17.9886 109.011 18.1761 108.193 18.1761ZM108.199 16.75C108.729 16.75 109.169 16.6098 109.517 16.3295C109.866 16.0492 110.123 15.6761 110.29 15.2102C110.46 14.7443 110.545 14.2311 110.545 13.6705C110.545 13.1136 110.46 12.6023 110.29 12.1364C110.123 11.6667 109.866 11.2898 109.517 11.0057C109.169 10.7216 108.729 10.5795 108.199 10.5795C107.665 10.5795 107.222 10.7216 106.869 11.0057C106.521 11.2898 106.261 11.6667 106.091 12.1364C105.924 12.6023 105.841 13.1136 105.841 13.6705C105.841 14.2311 105.924 14.7443 106.091 15.2102C106.261 15.6761 106.521 16.0492 106.869 16.3295C107.222 16.6098 107.665 16.75 108.199 16.75ZM115.857 12.8182V18H114.158V9.27273H115.788V10.6932H115.896C116.097 10.2311 116.411 9.85985 116.839 9.57955C117.271 9.29924 117.815 9.15909 118.47 9.15909C119.065 9.15909 119.586 9.28409 120.033 9.53409C120.48 9.7803 120.826 10.1477 121.072 10.6364C121.319 11.125 121.442 11.7292 121.442 12.4489V18H119.743V12.6534C119.743 12.0208 119.578 11.5265 119.249 11.1705C118.919 10.8106 118.466 10.6307 117.891 10.6307C117.497 10.6307 117.146 10.7159 116.839 10.8864C116.536 11.0568 116.296 11.3068 116.118 11.6364C115.944 11.9621 115.857 12.3561 115.857 12.8182Z" fill="white"/>
</svg>
