<svg width="44" height="26" viewBox="0 0 44 26" fill="none" xmlns="http://www.w3.org/2000/svg">
<path d="M7.74243 19.2727V21.6818" stroke="#6D737A" stroke-width="1.60606" stroke-linecap="round" stroke-linejoin="round"/>
<path d="M18.9849 19.2727V21.6818" stroke="#6D737A" stroke-width="1.60606" stroke-linecap="round" stroke-linejoin="round"/>
<path d="M6.13635 10.4394V5.21973C6.13635 4.68729 6.34786 4.17666 6.72436 3.80016C7.10085 3.42367 7.61149 3.21216 8.14393 3.21216C8.67637 3.21216 9.18701 3.42367 9.5635 3.80016C9.93999 4.17666 10.1515 4.68729 10.1515 5.21973" stroke="#6D737A" stroke-width="1.60606" stroke-linecap="round" stroke-linejoin="round"/>
<path d="M20.5909 9.63647H14.1666V14.4547H20.5909V9.63647Z" stroke="#6D737A" stroke-width="1.60606" stroke-linecap="round" stroke-linejoin="round"/>
<path d="M20.5909 10.4395H23.803C24.016 10.4395 24.2203 10.5241 24.3709 10.6747C24.5215 10.8253 24.6061 11.0295 24.6061 11.2425V14.4546C24.6061 15.7325 24.0984 16.958 23.1949 17.8616C22.2913 18.7652 21.0657 19.2728 19.7879 19.2728H6.9394C5.66154 19.2728 4.43601 18.7652 3.53243 17.8616C2.62884 16.958 2.12122 15.7325 2.12122 14.4546V11.2425C2.12122 11.0295 2.20582 10.8253 2.35642 10.6747C2.50702 10.5241 2.71127 10.4395 2.92425 10.4395H14.1667" stroke="#6D737A" stroke-width="1.60606" stroke-linecap="round" stroke-linejoin="round"/>
<path d="M33.5114 16.5757V15.1552L38.5398 7.21202H39.6591V9.30293H38.9489L35.3523 14.9961V15.087H42.2443V16.5757H33.5114ZM39.0284 18.8484V16.1438L39.0398 15.4961V7.21202H40.7045V18.8484H39.0284Z" fill="#6D737A"/>
</svg>
