<svg width="118" height="26" viewBox="0 0 118 26" fill="none" xmlns="http://www.w3.org/2000/svg">
<path d="M17.197 4.81812H21.2122V8.83327" stroke="#6D737A" stroke-width="1.60606" stroke-linecap="round" stroke-linejoin="round"/>
<path d="M15.5909 10.4393L21.2122 4.81812" stroke="#6D737A" stroke-width="1.60606" stroke-linecap="round" stroke-linejoin="round"/>
<path d="M9.1667 20.8787H5.15155V16.8635" stroke="#6D737A" stroke-width="1.60606" stroke-linecap="round" stroke-linejoin="round"/>
<path d="M10.7728 15.2576L5.15155 20.8788" stroke="#6D737A" stroke-width="1.60606" stroke-linecap="round" stroke-linejoin="round"/>
<path d="M21.2122 16.8635V20.8787H17.197" stroke="#6D737A" stroke-width="1.60606" stroke-linecap="round" stroke-linejoin="round"/>
<path d="M15.5909 15.2576L21.2122 20.8788" stroke="#6D737A" stroke-width="1.60606" stroke-linecap="round" stroke-linejoin="round"/>
<path d="M5.15155 8.83327V4.81812H9.1667" stroke="#6D737A" stroke-width="1.60606" stroke-linecap="round" stroke-linejoin="round"/>
<path d="M10.7728 10.4393L5.15155 4.81812" stroke="#6D737A" stroke-width="1.60606" stroke-linecap="round" stroke-linejoin="round"/>
<path d="M33.5739 18.8484V17.5757L37.5114 13.4961C37.9319 13.0529 38.2785 12.6647 38.5512 12.3313C38.8277 11.9942 39.0341 11.6741 39.1705 11.3711C39.3069 11.0681 39.375 10.7461 39.375 10.4052C39.375 10.0188 39.2841 9.68551 39.1023 9.40521C38.9205 9.12112 38.6724 8.90331 38.358 8.7518C38.0436 8.59649 37.6894 8.51884 37.2955 8.51884C36.8788 8.51884 36.5152 8.60407 36.2046 8.77452C35.894 8.94498 35.6553 9.18551 35.4887 9.49612C35.322 9.80672 35.2387 10.1704 35.2387 10.587H33.5625C33.5625 9.87869 33.7254 9.25937 34.0512 8.72907C34.3769 8.19877 34.8239 7.78778 35.3921 7.49612C35.9603 7.20066 36.6061 7.05293 37.3296 7.05293C38.0607 7.05293 38.7046 7.19877 39.2614 7.49043C39.822 7.77831 40.2595 8.17225 40.5739 8.67225C40.8883 9.16846 41.0455 9.72907 41.0455 10.3541C41.0455 10.7859 40.9641 11.2082 40.8012 11.6211C40.6421 12.034 40.3637 12.4942 39.966 13.0018C39.5682 13.5056 39.0152 14.1173 38.3069 14.837L35.9944 17.2575V17.3427H41.233V18.8484H33.5739ZM45.6194 17.2575L45.5341 17.8768C45.4773 18.3313 45.3807 18.8048 45.2444 19.2973C45.1118 19.7935 44.9735 20.2537 44.8296 20.6779C44.6894 21.1022 44.5739 21.4393 44.483 21.6893H43.2785C43.3277 21.4544 43.3959 21.1363 43.483 20.7348C43.5701 20.337 43.6553 19.8919 43.7387 19.3995C43.822 18.9071 43.8845 18.4052 43.9262 17.8938L43.983 17.2575H45.6194ZM51.625 19.0416C50.7273 19.0378 49.9603 18.801 49.3239 18.3313C48.6875 17.8616 48.2008 17.1779 47.8637 16.2802C47.5266 15.3825 47.358 14.301 47.358 13.0359C47.358 11.7745 47.5266 10.6969 47.8637 9.80293C48.2046 8.90899 48.6932 8.22718 49.3296 7.75748C49.9697 7.28778 50.7349 7.05293 51.625 7.05293C52.5152 7.05293 53.2785 7.28968 53.9148 7.76316C54.5512 8.23286 55.0379 8.91468 55.375 9.80862C55.716 10.6988 55.8864 11.7745 55.8864 13.0359C55.8864 14.3048 55.7178 15.3882 55.3807 16.2859C55.0436 17.1798 54.5569 17.8635 53.9205 18.337C53.2841 18.8067 52.519 19.0416 51.625 19.0416ZM51.625 17.5245C52.4129 17.5245 53.0285 17.1401 53.4716 16.3711C53.9186 15.6022 54.1421 14.4904 54.1421 13.0359C54.1421 12.07 54.0398 11.2537 53.8353 10.587C53.6345 9.91657 53.3447 9.40899 52.966 9.0643C52.591 8.71581 52.144 8.54157 51.625 8.54157C50.841 8.54157 50.2254 8.92793 49.7785 9.70066C49.3315 10.4734 49.1061 11.5851 49.1023 13.0359C49.1023 14.0056 49.2027 14.8257 49.4035 15.4961C49.608 16.1628 49.8978 16.6685 50.2728 17.0132C50.6478 17.3541 51.0985 17.5245 51.625 17.5245ZM61.7714 7.05293C62.2903 7.05672 62.8017 7.15142 63.3054 7.33702C63.8092 7.52263 64.2638 7.82566 64.6691 8.24612C65.0782 8.66657 65.4039 9.23475 65.6464 9.95066C65.8926 10.6628 66.0176 11.5491 66.0214 12.6098C66.0214 13.6287 65.9191 14.5359 65.7145 15.3313C65.51 16.123 65.2164 16.7916 64.8339 17.337C64.4551 17.8825 63.9948 18.2973 63.4532 18.5813C62.9115 18.8654 62.3017 19.0075 61.6236 19.0075C60.9304 19.0075 60.3149 18.8711 59.777 18.5984C59.2392 18.3257 58.8017 17.9488 58.4645 17.4677C58.1274 16.9829 57.9172 16.426 57.8339 15.7973H59.5668C59.6804 16.2973 59.9115 16.7026 60.26 17.0132C60.6123 17.32 61.0668 17.4734 61.6236 17.4734C62.4759 17.4734 63.1407 17.1022 63.6179 16.3598C64.0952 15.6135 64.3357 14.5719 64.3395 13.2348H64.2486C64.0517 13.5605 63.8054 13.8408 63.51 14.0757C63.2183 14.3105 62.8907 14.4923 62.527 14.6211C62.1634 14.7499 61.7751 14.8143 61.3623 14.8143C60.6918 14.8143 60.082 14.6495 59.5327 14.32C58.9835 13.9904 58.546 13.5378 58.2202 12.962C57.8945 12.3863 57.7316 11.7291 57.7316 10.9904C57.7316 10.2556 57.8982 9.58892 58.2316 8.99043C58.5687 8.39195 59.0384 7.91846 59.6407 7.56998C60.2467 7.21771 60.957 7.04536 61.7714 7.05293ZM61.777 8.53021C61.3339 8.53021 60.9342 8.64006 60.5782 8.85975C60.2259 9.07566 59.9475 9.36922 59.7429 9.74043C59.5384 10.1079 59.4361 10.5169 59.4361 10.9677C59.4361 11.4185 59.5346 11.8276 59.7316 12.195C59.9323 12.5586 60.2051 12.8484 60.5498 13.0643C60.8982 13.2764 61.296 13.3825 61.7429 13.3825C62.0763 13.3825 62.3869 13.3181 62.6748 13.1893C62.9626 13.0605 63.2145 12.8825 63.4304 12.6552C63.6464 12.4241 63.8149 12.1628 63.9361 11.8711C64.0573 11.5794 64.1179 11.2726 64.1179 10.9507C64.1179 10.5226 64.0157 10.1249 63.8111 9.75748C63.6104 9.39006 63.3339 9.0946 62.9816 8.87112C62.6293 8.64384 62.2278 8.53021 61.777 8.53021ZM72.1364 19.0075C71.6175 18.9999 71.1061 18.9052 70.6023 18.7234C70.1023 18.5416 69.6478 18.2385 69.2387 17.8143C68.8296 17.3901 68.5019 16.82 68.2557 16.1041C68.0133 15.3882 67.8921 14.4942 67.8921 13.4223C67.8921 12.4071 67.9925 11.5056 68.1932 10.7177C68.3978 9.92983 68.6913 9.26506 69.0739 8.72339C69.4565 8.17793 69.9186 7.76316 70.4603 7.47907C71.0019 7.19498 71.6099 7.05293 72.2841 7.05293C72.9773 7.05293 73.5928 7.1893 74.1307 7.46202C74.6686 7.73475 75.1042 8.11165 75.4375 8.59271C75.7747 9.07377 75.9887 9.62112 76.0796 10.2348H74.3466C74.2292 9.7499 73.9963 9.35407 73.6478 9.04725C73.2993 8.74043 72.8447 8.58702 72.2841 8.58702C71.4319 8.58702 70.7671 8.95824 70.2898 9.70066C69.8163 10.4431 69.5777 11.4753 69.5739 12.7973H69.6591C69.8599 12.4677 70.1061 12.1874 70.3978 11.9563C70.6932 11.7215 71.0228 11.5416 71.3864 11.4166C71.7538 11.2878 72.1402 11.2234 72.5455 11.2234C73.2197 11.2234 73.8296 11.3882 74.375 11.7177C74.9243 12.0435 75.3618 12.4942 75.6875 13.07C76.0133 13.6457 76.1762 14.3048 76.1762 15.0473C76.1762 15.7897 76.0076 16.462 75.6705 17.0643C75.3372 17.6666 74.8675 18.1438 74.2614 18.4961C73.6553 18.8446 72.947 19.0151 72.1364 19.0075ZM72.1307 17.5302C72.5777 17.5302 72.9773 17.4204 73.3296 17.2007C73.6819 16.981 73.9603 16.6855 74.1648 16.3143C74.3694 15.9431 74.4716 15.5283 74.4716 15.07C74.4716 14.623 74.3713 14.2158 74.1705 13.8484C73.9735 13.481 73.7008 13.1893 73.3523 12.9734C73.0076 12.7575 72.6137 12.6495 72.1705 12.6495C71.8334 12.6495 71.5209 12.7139 71.233 12.8427C70.9489 12.9715 70.6989 13.1495 70.483 13.3768C70.2671 13.6041 70.0966 13.8654 69.9716 14.1609C69.8504 14.4526 69.7898 14.7613 69.7898 15.087C69.7898 15.5226 69.8902 15.926 70.091 16.2973C70.2955 16.6685 70.5739 16.9677 70.9262 17.195C71.2822 17.4185 71.6838 17.5302 72.1307 17.5302ZM78.8566 18.9563C78.546 18.9563 78.2789 18.8465 78.0554 18.6268C77.832 18.4033 77.7202 18.1344 77.7202 17.82C77.7202 17.5094 77.832 17.2442 78.0554 17.0245C78.2789 16.801 78.546 16.6893 78.8566 16.6893C79.1672 16.6893 79.4342 16.801 79.6577 17.0245C79.8812 17.2442 79.9929 17.5094 79.9929 17.82C79.9929 18.0283 79.9399 18.2196 79.8339 18.3938C79.7316 18.5643 79.5952 18.7007 79.4248 18.8029C79.2543 18.9052 79.0649 18.9563 78.8566 18.9563ZM85.875 19.0416C84.9773 19.0378 84.2103 18.801 83.5739 18.3313C82.9375 17.8616 82.4508 17.1779 82.1137 16.2802C81.7766 15.3825 81.608 14.301 81.608 13.0359C81.608 11.7745 81.7766 10.6969 82.1137 9.80293C82.4546 8.90899 82.9432 8.22718 83.5796 7.75748C84.2197 7.28778 84.9849 7.05293 85.875 7.05293C86.7652 7.05293 87.5285 7.28968 88.1648 7.76316C88.8012 8.23286 89.2879 8.91468 89.625 9.80862C89.966 10.6988 90.1364 11.7745 90.1364 13.0359C90.1364 14.3048 89.9678 15.3882 89.6307 16.2859C89.2936 17.1798 88.8069 17.8635 88.1705 18.337C87.5341 18.8067 86.769 19.0416 85.875 19.0416ZM85.875 17.5245C86.6629 17.5245 87.2785 17.1401 87.7216 16.3711C88.1686 15.6022 88.3921 14.4904 88.3921 13.0359C88.3921 12.07 88.2898 11.2537 88.0853 10.587C87.8845 9.91657 87.5947 9.40899 87.216 9.0643C86.841 8.71581 86.394 8.54157 85.875 8.54157C85.091 8.54157 84.4754 8.92793 84.0285 9.70066C83.5815 10.4734 83.3561 11.5851 83.3523 13.0359C83.3523 14.0056 83.4527 14.8257 83.6535 15.4961C83.858 16.1628 84.1478 16.6685 84.5228 17.0132C84.8978 17.3541 85.3485 17.5245 85.875 17.5245ZM96.2032 19.0416C95.3054 19.0378 94.5384 18.801 93.902 18.3313C93.2657 17.8616 92.7789 17.1779 92.4418 16.2802C92.1047 15.3825 91.9361 14.301 91.9361 13.0359C91.9361 11.7745 92.1047 10.6969 92.4418 9.80293C92.7827 8.90899 93.2714 8.22718 93.9077 7.75748C94.5479 7.28778 95.313 7.05293 96.2032 7.05293C97.0933 7.05293 97.8566 7.28968 98.4929 7.76316C99.1293 8.23286 99.616 8.91468 99.9532 9.80862C100.294 10.6988 100.465 11.7745 100.465 13.0359C100.465 14.3048 100.296 15.3882 99.9589 16.2859C99.6217 17.1798 99.135 17.8635 98.4986 18.337C97.8623 18.8067 97.0971 19.0416 96.2032 19.0416ZM96.2032 17.5245C96.991 17.5245 97.6066 17.1401 98.0498 16.3711C98.4967 15.6022 98.7202 14.4904 98.7202 13.0359C98.7202 12.07 98.6179 11.2537 98.4134 10.587C98.2126 9.91657 97.9229 9.40899 97.5441 9.0643C97.1691 8.71581 96.7221 8.54157 96.2032 8.54157C95.4191 8.54157 94.8035 8.92793 94.3566 9.70066C93.9096 10.4734 93.6842 11.5851 93.6804 13.0359C93.6804 14.0056 93.7808 14.8257 93.9816 15.4961C94.1861 16.1628 94.4759 16.6685 94.8509 17.0132C95.2259 17.3541 95.6767 17.5245 96.2032 17.5245ZM110.891 10.1211V11.4848H105.959V10.1211H110.891ZM107.311 18.8484V9.10975C107.311 8.5643 107.43 8.11165 107.669 7.7518C107.908 7.38816 108.224 7.11733 108.618 6.9393C109.012 6.75748 109.44 6.66657 109.902 6.66657C110.243 6.66657 110.535 6.69498 110.777 6.7518C111.019 6.80483 111.199 6.85407 111.317 6.89952L110.919 8.27452C110.84 8.2518 110.737 8.22528 110.612 8.19498C110.487 8.16089 110.336 8.14384 110.158 8.14384C109.745 8.14384 109.449 8.24612 109.271 8.45066C109.097 8.65521 109.01 8.95066 109.01 9.33702V18.8484H107.311ZM116.717 10.1211V11.4848H111.95V10.1211H116.717ZM113.229 8.03021H114.928V16.2859C114.928 16.6154 114.977 16.8635 115.075 17.0302C115.174 17.1931 115.301 17.3048 115.456 17.3654C115.615 17.4223 115.787 17.4507 115.973 17.4507C116.109 17.4507 116.229 17.4412 116.331 17.4223C116.433 17.4033 116.513 17.3882 116.57 17.3768L116.876 18.7802C116.778 18.8181 116.638 18.856 116.456 18.8938C116.274 18.9355 116.047 18.9582 115.774 18.962C115.327 18.9696 114.911 18.8901 114.524 18.7234C114.138 18.5567 113.825 18.2991 113.587 17.9507C113.348 17.6022 113.229 17.1647 113.229 16.6382V8.03021Z" fill="#6D737A"/>
</svg>
